<svg width="1538" height="1503" viewBox="0 0 1538 1503" fill="none" xmlns="http://www.w3.org/2000/svg">
<path fill-rule="evenodd" clip-rule="evenodd" d="M1447.13 841C1403.07 1176.23 1116.26 1435 769 1435C421.745 1435 134.93 1176.23 90.8686 841H74.7324C118.898 1185.09 412.896 1451 769 1451C1125.1 1451 1419.1 1185.09 1463.27 841H1447.13ZM90.8686 661C134.93 325.772 421.745 67 769 67C1116.26 67 1403.07 325.772 1447.13 661H1463.27C1419.1 316.909 1125.1 51 769 51C412.896 51 118.898 316.909 74.7324 661H90.8686Z" fill="#303030"/>
<line x1="254" y1="653" x2="78" y2="653" stroke="#303030" stroke-width="16"/>
<line x1="254" y1="849" x2="78" y2="849" stroke="#303030" stroke-width="16"/>
<line x1="1456" y1="653" x2="1280" y2="653" stroke="#303030" stroke-width="16"/>
<line x1="1456" y1="849" x2="1280" y2="849" stroke="#303030" stroke-width="16"/>
<path fill-rule="evenodd" clip-rule="evenodd" d="M1377.94 901C1310.72 1174.85 1063.58 1378 769 1378C474.417 1378 227.284 1174.85 160.056 901H151.819C219.221 1179.31 469.973 1386 769 1386C1068.03 1386 1318.78 1179.31 1386.18 901H1377.94ZM160.056 601C227.284 327.152 474.417 124 769 124C1063.58 124 1310.72 327.152 1377.94 601H1386.18C1318.78 322.691 1068.03 116 769 116C469.973 116 219.221 322.691 151.819 601H160.056Z" fill="#01C3CB"/>
<path fill-rule="evenodd" clip-rule="evenodd" d="M328.007 645H310L318.754 661L759.881 1467.26L769 1483.93L778.119 1467.26L1219.25 661L1228 645H1209.94L1191.78 677.882H1191.77L769 1450.6L336.992 661H337.068L328.007 645Z" fill="#303030"/>
<path d="M453.327 309.455L481.395 389.043H482.503L510.571 309.455H522.574L487.858 404H476.04L441.324 309.455H453.327ZM550.3 404V309.455H607.36V319.611H561.749V351.557H604.406V361.713H561.749V393.844H608.099V404H550.3ZM715.967 309.455V404H704.888L653.368 329.767H652.445V404H640.996V309.455H652.075L703.78 383.872H704.703V309.455H715.967ZM746.706 319.611V309.455H817.615V319.611H787.885V404H776.436V319.611H746.706ZM910.33 309.455H921.779V372.054C921.779 378.517 920.256 384.288 917.209 389.366C914.193 394.413 909.93 398.399 904.421 401.322C898.912 404.215 892.449 405.662 885.032 405.662C877.615 405.662 871.152 404.215 865.643 401.322C860.134 398.399 855.856 394.413 852.809 389.366C849.793 384.288 848.285 378.517 848.285 372.054V309.455H859.734V371.131C859.734 375.747 860.749 379.856 862.781 383.457C864.812 387.027 867.705 389.843 871.46 391.905C875.245 393.936 879.769 394.952 885.032 394.952C890.295 394.952 894.819 393.936 898.604 391.905C902.39 389.843 905.283 387.027 907.283 383.457C909.315 379.856 910.33 375.747 910.33 371.131V309.455ZM957.642 404V309.455H989.588C996.975 309.455 1003.04 310.716 1007.78 313.24C1012.52 315.733 1016.03 319.165 1018.3 323.535C1020.58 327.905 1021.72 332.875 1021.72 338.446C1021.72 344.017 1020.58 348.956 1018.3 353.265C1016.03 357.574 1012.53 360.959 1007.82 363.421C1003.11 365.853 997.098 367.068 989.773 367.068H963.921V356.727H989.404C994.451 356.727 998.513 355.989 1001.59 354.511C1004.7 353.034 1006.95 350.941 1008.33 348.233C1009.75 345.494 1010.45 342.232 1010.45 338.446C1010.45 334.661 1009.75 331.352 1008.33 328.521C1006.92 325.689 1004.65 323.504 1001.54 321.965C998.436 320.396 994.328 319.611 989.219 319.611H969.091V404H957.642ZM1002.15 361.528L1025.41 404H1012.12L989.219 361.528H1002.15ZM1065.25 309.455V404H1053.8V309.455H1065.25Z" fill="#303030"/>
<path d="M419.625 541H390.449V446.455H420.918C430.089 446.455 437.937 448.347 444.462 452.133C450.986 455.888 455.987 461.289 459.465 468.337C462.943 475.354 464.682 483.756 464.682 493.543C464.682 503.391 462.928 511.87 459.419 518.979C455.911 526.058 450.802 531.505 444.092 535.322C437.383 539.107 429.227 541 419.625 541ZM401.898 530.844H418.886C426.704 530.844 433.182 529.336 438.322 526.32C443.461 523.304 447.293 519.01 449.817 513.44C452.34 507.869 453.602 501.237 453.602 493.543C453.602 485.91 452.356 479.339 449.863 473.83C447.37 468.29 443.646 464.043 438.691 461.089C433.736 458.103 427.565 456.611 420.179 456.611H401.898V530.844ZM484.318 446.455H497.429L523.65 490.588H524.758L550.98 446.455H564.091L529.929 502.037V541H518.48V502.037L484.318 446.455ZM666.87 446.455V541H655.79L604.27 466.767H603.347V541H591.898V446.455H602.978L654.682 520.872H655.605V446.455H666.87ZM706.657 541H694.654L729.37 446.455H741.188L775.904 541H763.901L735.648 461.412H734.91L706.657 541ZM711.089 504.068H759.469V514.224H711.089V504.068ZM803.631 446.455H817.295L849.426 524.935H850.534L882.665 446.455H896.329V541H885.619V469.168H884.696L855.15 541H844.809L815.264 469.168H814.341V541H803.631V446.455ZM943.734 446.455V541H932.285V446.455H943.734ZM1055.77 476H1044.32C1043.64 472.707 1042.46 469.814 1040.77 467.321C1039.1 464.828 1037.07 462.735 1034.67 461.043C1032.3 459.319 1029.67 458.027 1026.78 457.165C1023.88 456.303 1020.87 455.872 1017.73 455.872C1012 455.872 1006.82 457.319 1002.17 460.212C997.555 463.105 993.877 467.367 991.138 472.999C988.43 478.631 987.075 485.541 987.075 493.727C987.075 501.914 988.43 508.823 991.138 514.455C993.877 520.087 997.555 524.35 1002.17 527.243C1006.82 530.136 1012 531.582 1017.73 531.582C1020.87 531.582 1023.88 531.152 1026.78 530.29C1029.67 529.428 1032.3 528.151 1034.67 526.458C1037.07 524.735 1039.1 522.626 1040.77 520.134C1042.46 517.61 1043.64 514.717 1044.32 511.455H1055.77C1054.91 516.286 1053.34 520.611 1051.06 524.427C1048.78 528.243 1045.95 531.49 1042.57 534.168C1039.18 536.814 1035.38 538.83 1031.16 540.215C1026.98 541.6 1022.5 542.293 1017.73 542.293C1009.67 542.293 1002.49 540.323 996.216 536.384C989.938 532.444 984.998 526.843 981.397 519.58C977.796 512.316 975.996 503.699 975.996 493.727C975.996 483.756 977.796 475.138 981.397 467.875C984.998 460.612 989.938 455.01 996.216 451.071C1002.49 447.132 1009.67 445.162 1017.73 445.162C1022.5 445.162 1026.98 445.854 1031.16 447.239C1035.38 448.624 1039.18 450.656 1042.57 453.333C1045.95 455.98 1048.78 459.211 1051.06 463.028C1053.34 466.813 1054.91 471.137 1055.77 476ZM1138.97 470.091C1138.42 465.413 1136.17 461.781 1132.23 459.196C1128.29 456.611 1123.46 455.318 1117.74 455.318C1113.55 455.318 1109.89 455.995 1106.75 457.349C1103.64 458.704 1101.21 460.566 1099.46 462.935C1097.73 465.305 1096.87 467.998 1096.87 471.014C1096.87 473.538 1097.47 475.708 1098.67 477.523C1099.9 479.308 1101.47 480.801 1103.38 482.001C1105.29 483.171 1107.29 484.14 1109.38 484.91C1111.47 485.648 1113.4 486.249 1115.15 486.71L1124.75 489.295C1127.22 489.942 1129.96 490.834 1132.97 491.973C1136.02 493.112 1138.93 494.666 1141.7 496.636C1144.5 498.575 1146.81 501.067 1148.62 504.114C1150.44 507.161 1151.35 510.901 1151.35 515.332C1151.35 520.441 1150.01 525.058 1147.33 529.182C1144.68 533.306 1140.8 536.584 1135.7 539.015C1130.62 541.446 1124.45 542.662 1117.18 542.662C1110.41 542.662 1104.55 541.569 1099.6 539.384C1094.67 537.199 1090.79 534.152 1087.96 530.244C1085.16 526.335 1083.58 521.795 1083.21 516.625H1095.02C1095.33 520.195 1096.53 523.15 1098.63 525.489C1100.75 527.797 1103.43 529.52 1106.66 530.659C1109.92 531.767 1113.43 532.321 1117.18 532.321C1121.55 532.321 1125.48 531.613 1128.96 530.197C1132.43 528.751 1135.19 526.75 1137.22 524.196C1139.25 521.611 1140.27 518.595 1140.27 515.148C1140.27 512.009 1139.39 509.454 1137.63 507.484C1135.88 505.515 1133.57 503.914 1130.71 502.683C1127.85 501.452 1124.75 500.375 1121.43 499.452L1109.8 496.128C1102.41 494.004 1096.56 490.973 1092.25 487.033C1087.95 483.094 1085.79 477.939 1085.79 471.568C1085.79 466.275 1087.22 461.658 1090.09 457.719C1092.98 453.749 1096.86 450.671 1101.72 448.486C1106.61 446.27 1112.08 445.162 1118.11 445.162C1124.2 445.162 1129.62 446.254 1134.36 448.44C1139.1 450.594 1142.85 453.549 1145.62 457.303C1148.42 461.058 1149.9 465.321 1150.05 470.091H1138.97Z" fill="#303030"/>
<path d="M769 1263L450 645H1088L769 1263Z" fill="#01C3CB" fill-opacity="0.1"/>
</svg>
